<svg width="17" height="20" viewBox="0 0 17 20" fill="none" xmlns="http://www.w3.org/2000/svg">
  <path d="M11.5126 2.44721L11.7889 3H5.02502L5.30141 2.44721L5.74862 1.55279C5.91802 1.214 6.26428 1 6.64305 1H10.1709C10.5497 1 10.8959 1.214 11.0653 1.55279L11.5126 2.44721Z" stroke="#7B8B99" stroke-width="2"/>
  <path d="M3.40698 19C2.8547 19 2.40698 18.5523 2.40698 18V7H14.407V18C14.407 18.5523 13.9593 19 13.407 19H3.40698Z" stroke="#27282A" stroke-width="2"/>
  <path d="M11.407 10L8.40698 13M8.40698 13L5.40698 16M8.40698 13L11.407 16M8.40698 13L5.40698 10" stroke="#7B8B99" stroke-width="2"/>
</svg>
