<svg width="73" height="84" viewBox="0 0 73 84" fill="none" xmlns="http://www.w3.org/2000/svg">
  <path fill-rule="evenodd" clip-rule="evenodd" d="M71.7077 21.4342L71.7259 62.278L36.3145 82.6855L1 62.2858V21.4511L36.3644 1.0211L71.7077 21.4342Z" stroke="#99ACBC" stroke-width="1.5"/>
  <path d="M1.00801 62.2627L36.3632 41.8201" stroke="#99ACBC" stroke-width="1.5"/>
  <path fill-rule="evenodd" clip-rule="evenodd" d="M36.3655 1.00914V41.8438L71.7088 62.2499L71.7179 62.2436L71.7207 21.4012L36.3873 1L36.3655 1.00914Z" fill="white"/>
  <path fill-rule="evenodd" clip-rule="evenodd" d="M71.7086 62.2493L36.3653 41.8439L36.366 1.00921L36.3878 1.00007L71.7205 21.4012L71.7177 62.2444L71.7086 62.2493Z" stroke="#192A42" stroke-width="1.5"/>
  <path fill-rule="evenodd" clip-rule="evenodd" d="M7.67133 38.1391L18.6893 31.7927V19.0858L7.68469 25.4125L7.67133 38.1391Z" fill="white"/>
  <path fill-rule="evenodd" clip-rule="evenodd" d="M7.67133 38.1391L18.6893 31.7927V19.0858L7.68469 25.4125L7.67133 38.1391Z" stroke="#99ACBC" stroke-width="1.5"/>
  <path fill-rule="evenodd" clip-rule="evenodd" d="M5.14893 42.6256L16.1669 36.2792V23.5724L5.16229 29.8991L5.14893 42.6256Z" fill="#128AFB"/>
  <path fill-rule="evenodd" clip-rule="evenodd" d="M30.0939 33.1142L7.28664 46.2275Z" fill="white"/>
  <path d="M30.0939 33.1142L7.28664 46.2275" stroke="#99ACBC" stroke-width="1.5"/>
  <path fill-rule="evenodd" clip-rule="evenodd" d="M30.1535 38.4147L7.2872 51.5617Z" fill="white"/>
  <path d="M30.1535 38.4147L7.2872 51.5617" stroke="#99ACBC" stroke-width="1.5"/>
  <path fill-rule="evenodd" clip-rule="evenodd" d="M30.0939 18.3889L22.5079 22.7504Z" fill="white"/>
  <path d="M30.0939 18.3889L22.5079 22.7504" stroke="#99ACBC" stroke-width="1.5"/>
  <path fill-rule="evenodd" clip-rule="evenodd" d="M28.075 26.3468L22.5076 29.5474Z" fill="white"/>
  <path d="M28.075 26.3468L22.5076 29.5474" stroke="#99ACBC" stroke-width="1.5"/>
  <path fill-rule="evenodd" clip-rule="evenodd" d="M68.1413 43.6542L57.1233 37.3078V24.601L68.1279 30.9277L68.1413 43.6542Z" fill="#FFBD16"/>
  <path fill-rule="evenodd" clip-rule="evenodd" d="M65.059 38.1238L54.0411 31.7774V19.0705L65.0457 25.3972L65.059 38.1238Z" stroke="#192A42" stroke-width="1.5"/>
  <path fill-rule="evenodd" clip-rule="evenodd" d="M42.6365 33.0988L65.443 46.2121Z" fill="white"/>
  <path d="M42.6365 33.0988L65.443 46.2121" stroke="#192A42" stroke-width="1.5"/>
  <path fill-rule="evenodd" clip-rule="evenodd" d="M42.5768 38.3994L65.4432 51.5464Z" fill="white"/>
  <path d="M42.5768 38.3994L65.4432 51.5464" stroke="#192A42" stroke-width="1.5"/>
  <path fill-rule="evenodd" clip-rule="evenodd" d="M42.6365 18.3736L50.2225 22.7351Z" fill="white"/>
  <path d="M42.6365 18.3736L50.2225 22.7351" stroke="#192A42" stroke-width="1.5"/>
  <path fill-rule="evenodd" clip-rule="evenodd" d="M44.6554 26.3316L50.2228 29.5322Z" fill="white"/>
  <path d="M44.6554 26.3316L50.2228 29.5322" stroke="#192A42" stroke-width="1.5"/>
</svg>
