<svg width="26" height="25" viewBox="0 0 26 25" fill="none" xmlns="http://www.w3.org/2000/svg">
  <path d="M9.14844 24.6846C9.14844 23.6938 9.1635 22.7047 9.16685 21.7139C9.17578 17.9337 9.18191 14.1524 9.18526 10.37C9.18526 9.79262 9.1635 9.21355 9.15178 8.63447V8.52066C9.2271 8.49723 14.3685 8.49054 14.5258 8.52066V10.7617H14.5459L14.6095 10.6713C15.04 10.0169 15.5936 9.45243 16.2396 9.00937C16.8879 8.5749 17.6259 8.29229 18.3986 8.18259C19.3975 8.02406 20.4193 8.09328 21.3877 8.3851C22.1322 8.60583 22.821 8.98293 23.408 9.49118C23.9951 9.99944 24.4669 10.6272 24.7919 11.3324C25.0873 11.9571 25.2935 12.6202 25.4044 13.3022C25.4964 13.8032 25.5468 14.3109 25.5551 14.8202C25.5576 14.8579 25.5626 14.8953 25.5701 14.9323V24.6846H20.1944C20.1944 24.6712 20.1944 24.6578 20.1944 24.6428C20.1944 21.7206 20.1944 18.7984 20.1944 15.8763C20.1947 15.4541 20.1521 15.033 20.0672 14.6194C19.9924 14.2055 19.8432 13.8086 19.6271 13.4478C19.336 12.9674 18.8687 12.6197 18.325 12.4788C17.9299 12.3753 17.519 12.3464 17.1133 12.3935C16.7472 12.4252 16.3925 12.5366 16.0739 12.7198C15.6103 13.0033 15.2253 13.3986 14.9543 13.8696C14.7582 14.1799 14.6289 14.5275 14.5744 14.8905C14.5397 15.1681 14.5235 15.4476 14.5258 15.7273V24.6813L9.14844 24.6846Z" fill="#99ACBC"/>
  <path d="M0.78125 24.6854C0.78125 24.6369 0.78125 24.5884 0.78125 24.5398V8.50977H6.14859C6.15425 8.53174 6.15817 8.55413 6.16031 8.57672C6.16031 8.61186 6.16031 8.64533 6.16031 8.68048V24.5298C6.16031 24.5817 6.1603 24.6335 6.15194 24.6854H0.78125Z" fill="#99ACBC"/>
  <path d="M3.45704 6.29401C3.00557 6.3097 2.55611 6.22688 2.13988 6.05133C1.70329 5.87584 1.32152 5.5869 1.03404 5.21439C0.746565 4.84188 0.563834 4.39933 0.504748 3.93252C0.419954 3.42462 0.477895 2.90315 0.672111 2.42625C0.816761 2.06716 1.03755 1.74371 1.31926 1.47818C1.60097 1.21265 1.9369 1.01136 2.3039 0.888178C2.82008 0.709821 3.36937 0.648087 3.91226 0.707423C4.28196 0.732038 4.64367 0.8263 4.97837 0.985246C5.38912 1.17095 5.74515 1.45927 6.01218 1.82245C6.27922 2.18563 6.44826 2.61144 6.50305 3.05888C6.58526 3.53201 6.54493 4.0183 6.38589 4.47142C6.25537 4.83196 6.04839 5.15999 5.77914 5.43299C5.50989 5.706 5.18476 5.91751 4.82607 6.05301C4.39069 6.22501 3.92497 6.30699 3.45704 6.29401Z" fill="#99ACBC"/>
</svg>
