<svg width="73" height="84" viewBox="0 0 73 84" fill="none" xmlns="http://www.w3.org/2000/svg">
  <path fill-rule="evenodd" clip-rule="evenodd" d="M71.7136 21.4346L71.7319 62.2784L36.3204 82.6859L1.00598 62.2861V21.4515L36.3704 1.02145L71.7136 21.4346Z" stroke="#99ACBC" stroke-width="1.5"/>
  <path d="M1 62.2794L36.3651 41.8613" stroke="#99ACBC" stroke-width="1.5"/>
  <path d="M71.7262 62.2721L36.3646 41.8611" stroke="#99ACBC" stroke-width="1.5"/>
  <path d="M36.3649 1V41.8614" stroke="#99ACBC" stroke-width="1.5"/>
  <path fill-rule="evenodd" clip-rule="evenodd" d="M26.8895 47.3894C28.2114 46.2271 29.5396 45.1654 30.8734 44.2056L24.9932 40.8088C23.6593 41.7693 22.3318 42.8303 21.0092 43.9933C18.9245 45.8327 17.4943 49.0122 17.4943 51.8092C17.4929 55.1976 17.4929 62.4264 17.4929 62.4264L23.3732 65.8225C23.3732 65.8225 23.3732 58.5937 23.3739 55.2053C23.3739 52.4083 24.804 49.2288 26.8895 47.3894Z" fill="#FFBA35"/>
  <path fill-rule="evenodd" clip-rule="evenodd" d="M51.4523 40.4273C52.604 41.025 53.3395 42.4305 53.3395 44.4035C53.3402 47.7862 53.3402 53.0048 53.3402 53.0168L26.8809 68.25L21.0007 64.8539C21.0007 64.8539 21.0007 57.625 21.0021 54.236C21.0021 51.4397 22.4322 48.2601 24.5177 46.4207C25.8396 45.2578 27.1678 44.1968 28.5016 43.2363L34.3811 46.6331L34.7517 46.8082L39.9597 37.5072C41.2943 37.1332 42.2829 36.8189 43.5956 36.5953C44.5406 36.435 46.2084 37.3997 46.2084 37.3997L51.4523 40.4273Z" fill="white"/>
  <path fill-rule="evenodd" clip-rule="evenodd" d="M51.4523 40.4273C52.604 41.025 53.3395 42.4305 53.3395 44.4035C53.3402 47.7862 53.3402 53.0048 53.3402 53.0168L26.8809 68.25L21.0007 64.8539C21.0007 64.8539 21.0007 57.625 21.0021 54.236C21.0021 51.4397 22.4322 48.2601 24.5177 46.4207C25.8396 45.2578 27.1678 44.1968 28.5016 43.2363L34.3811 46.6331L34.7517 46.8082L39.9597 37.5072C41.2943 37.1332 42.2829 36.8189 43.5956 36.5953C44.5406 36.435 46.2084 37.3997 46.2084 37.3997L51.4523 40.4273Z" stroke="#192A42" stroke-width="1.5"/>
  <path d="M26.8807 68.2498C26.8807 68.2498 26.8807 61.021 26.8821 57.6326C26.8821 54.8356 28.3123 51.6561 30.3971 49.8167C31.7196 48.6544 33.0471 47.5927 34.381 46.633L40.1107 51.1344L45.8398 40.9032C47.1736 40.5291 48.5018 40.2633 49.8237 40.1037C51.9092 39.8576 53.3393 41.607 53.3393 44.4033C53.3407 47.7861 53.3407 53.0054 53.3407 53.0166" stroke="#192A42" stroke-width="1.5"/>
  <path fill-rule="evenodd" clip-rule="evenodd" d="M38.859 37.413L45.8396 40.9033L38.859 37.413Z" fill="white"/>
  <path d="M38.859 37.413L45.8396 40.9033" stroke="#192A42" stroke-width="1.5"/>
  <path fill-rule="evenodd" clip-rule="evenodd" d="M35.2547 40.8092L29.3723 37.4131L29.1951 37.2929C27.7706 36.2811 26.8812 34.28 26.8812 31.5687C26.8812 26.3529 30.0614 20.498 34.1184 18.4695C35.6646 17.7094 37.3964 17.5533 38.6712 18.2157C39.0902 18.4336 44.1998 21.4079 44.1998 21.4079" fill="white"/>
  <path d="M35.2547 40.8092L29.3723 37.4131L29.1951 37.2929C27.7706 36.2811 26.8812 34.28 26.8812 31.5687C26.8812 26.3529 30.0614 20.498 34.1184 18.4695C35.6646 17.7094 37.3964 17.5533 38.6712 18.2157C39.0902 18.4336 44.1998 21.4079 44.1998 21.4079" stroke="#192A42" stroke-width="1.5"/>
  <path fill-rule="evenodd" clip-rule="evenodd" d="M40.1106 21.8399C44.167 19.8114 47.4604 22.3996 47.4604 27.6147C47.4604 32.8305 44.167 38.7114 40.1106 40.7392C36.0543 42.7677 32.7609 40.1802 32.7609 34.9644C32.7609 29.7494 36.0543 23.8677 40.1106 21.8399Z" fill="white"/>
  <path fill-rule="evenodd" clip-rule="evenodd" d="M40.1106 21.8399C44.167 19.8114 47.4604 22.3996 47.4604 27.6147C47.4604 32.8305 44.167 38.7114 40.1106 40.7392C36.0543 42.7677 32.7609 40.1802 32.7609 34.9644C32.7609 29.7494 36.0543 23.8677 40.1106 21.8399V21.8399Z" stroke="#192A42" stroke-width="1.5"/>
  <path fill-rule="evenodd" clip-rule="evenodd" d="M43.9898 23.2639C48.0461 21.2354 51.3396 23.8236 51.3396 29.0387C51.3396 34.2544 48.0461 40.1354 43.9898 42.1632C39.9335 44.1917 36.64 41.6042 36.64 36.3884C36.64 31.1733 39.9335 25.2917 43.9898 23.2639Z" fill="#167FF5"/>
</svg>
