<svg width="73" height="84" viewBox="0 0 73 84" fill="none" xmlns="http://www.w3.org/2000/svg">
  <path fill-rule="evenodd" clip-rule="evenodd" d="M71.7097 21.4304L71.728 62.2743L36.3165 82.6818L1.00204 62.282V21.4473L36.3664 1.0173L71.7097 21.4304Z" stroke="#99ACBC" stroke-width="1.5"/>
  <path d="M1 62.2794L36.3651 41.8613" stroke="#99ACBC" stroke-width="1.5"/>
  <path d="M71.7263 62.2722L56.2139 53.3186" stroke="#99ACBC" stroke-width="1.5"/>
  <path d="M36.3649 1V41.8263" stroke="#99ACBC" stroke-width="1.5"/>
  <path fill-rule="evenodd" clip-rule="evenodd" d="M15.6506 36.5922C12.142 38.7409 9.32809 43.6874 9.32809 47.7705C9.32809 49.8503 10.0586 51.3114 11.2392 51.9934L17.8957 55.8367C16.7151 55.1547 15.9846 53.6936 15.9846 51.6138C15.9846 47.5307 18.7985 42.5842 22.3071 40.4355L15.6506 36.5922Z" fill="#FFBD16"/>
  <path fill-rule="evenodd" clip-rule="evenodd" d="M19.3459 38.7495C19.5505 35.1769 22.0402 31.008 25.0855 29.2502C25.5777 28.9662 26.0558 28.7623 26.5114 28.6322C28.4401 24.232 31.7005 20.1884 35.3982 18.0537C38.3598 16.3444 41.0394 16.1827 42.98 17.3027L49.6365 21.146C47.6966 20.0259 45.0163 20.1877 42.0547 21.897C38.357 24.0316 35.0966 28.0753 33.1679 32.4762C32.7123 32.6055 32.2341 32.8095 31.742 33.0935C28.6967 34.8513 26.207 39.0202 26.0023 42.5927C22.4938 44.7415 19.6798 49.688 19.6798 53.771C19.6798 55.8509 20.4104 57.312 21.5909 57.994L14.9345 54.1507C13.7539 53.4687 13.0234 52.0076 13.0234 49.9277C13.0234 45.8447 15.8373 40.8982 19.3459 38.7495Z" fill="white"/>
  <path fill-rule="evenodd" clip-rule="evenodd" d="M19.3459 38.7495C19.5505 35.1769 22.0402 31.008 25.0855 29.2502C25.5777 28.9662 26.0558 28.7623 26.5114 28.6322C28.4401 24.232 31.7005 20.1884 35.3982 18.0537C38.3598 16.3444 41.0394 16.1827 42.98 17.3027L49.6365 21.146C47.6966 20.0259 45.0163 20.1877 42.0547 21.897C38.357 24.0316 35.0966 28.0753 33.1679 32.4762C32.7123 32.6055 32.2341 32.8095 31.742 33.0935C28.6967 34.8513 26.207 39.0202 26.0023 42.5927C22.4938 44.7415 19.6798 49.688 19.6798 53.771C19.6798 55.8509 20.4104 57.312 21.5909 57.994L14.9345 54.1507C13.7539 53.4687 13.0234 52.0076 13.0234 49.9277C13.0234 45.8447 15.8373 40.8982 19.3459 38.7495V38.7495Z" stroke="#192A42" stroke-width="1.5"/>
  <path d="M26.5115 28.6324L33.168 32.4757" stroke="#192A42" stroke-width="1.5"/>
  <path d="M19.3459 38.7495L26.0024 42.5927" stroke="#192A42" stroke-width="1.5"/>
  <path fill-rule="evenodd" clip-rule="evenodd" d="M30.634 54.9785L26.2051 57.5365C24.4029 58.5771 22.7717 58.6756 21.5911 57.9935C20.4106 57.3122 19.6801 55.8504 19.6801 53.7713C19.6801 49.6882 22.494 44.7418 26.0026 42.593C26.2065 39.0204 28.6969 34.8516 31.7422 33.0931C32.2344 32.809 32.7125 32.6051 33.1681 32.4757C35.0968 28.0749 38.3572 24.0319 42.0549 21.8972C45.0165 20.1872 47.6961 20.0255 49.6367 21.1456C51.4037 22.1665 52.5575 24.2506 52.7501 27.1974C54.2478 26.5336 55.5908 26.5442 56.6026 27.1285C57.7824 27.8098 58.5129 29.2709 58.5129 31.3507C58.5129 35.5111 55.5915 40.5701 51.9879 42.6507L49.6367 44.0393" fill="white"/>
  <path d="M30.634 54.9785L26.2051 57.5365C24.4029 58.5771 22.7717 58.6756 21.5911 57.9936C20.4106 57.3122 19.6801 55.8504 19.6801 53.7713C19.6801 49.6882 22.494 44.7418 26.0026 42.593C26.2065 39.0204 28.6969 34.8516 31.7422 33.0931C32.2344 32.809 32.7125 32.6051 33.1681 32.4757C35.0968 28.0749 38.3572 24.0319 42.0549 21.8972C45.0165 20.1872 47.6961 20.0255 49.6367 21.1456C51.4036 22.1665 52.5575 24.2506 52.7501 27.1974C54.2478 26.5336 55.5908 26.5442 56.6026 27.1285C57.7824 27.8098 58.5129 29.2709 58.5129 31.3507C58.5129 35.5111 55.5915 40.5701 51.9879 42.6507L49.6367 44.0393" stroke="#192A42" stroke-width="1.5"/>
  <path d="M30.634 62.1897V48.232" stroke="#192A42" stroke-width="1.5"/>
  <path d="M49.8254 37.5477L49.8367 56.5503L46.0869 58.7145" stroke="#192A42" stroke-width="1.5"/>
  <path d="M40.4933 49.2872L34.7551 52.6003" stroke="#192A42" stroke-width="1.5"/>
  <path d="M40.4933 63.7124V35.0263" stroke="#192A42" stroke-width="1.5"/>
  <path fill-rule="evenodd" clip-rule="evenodd" d="M53.3321 54.5553C53.3321 56.4861 51.7669 58.9485 49.8368 60.0552C47.906 61.1619 46.3409 60.4946 46.3409 58.5639C46.3409 56.6338 47.906 54.1714 49.8368 53.064C51.7669 51.9573 53.3321 52.6246 53.3321 54.5553Z" fill="white"/>
  <path fill-rule="evenodd" clip-rule="evenodd" d="M53.3321 54.5553C53.3321 56.4861 51.7669 58.9485 49.8368 60.0552C47.906 61.1619 46.3409 60.4946 46.3409 58.5639C46.3409 56.6338 47.906 54.1714 49.8368 53.064C51.7669 51.9573 53.3321 52.6246 53.3321 54.5553Z" stroke="#192A42" stroke-width="1.5"/>
  <path fill-rule="evenodd" clip-rule="evenodd" d="M33.9994 63.7533C33.9994 65.6841 32.4342 68.1465 30.5041 69.2532C28.5733 70.3599 27.0082 69.6926 27.0082 67.7619C27.0082 65.8318 28.5733 63.3694 30.5041 62.262C32.4342 61.1553 33.9994 61.8226 33.9994 63.7533Z" fill="white"/>
  <path fill-rule="evenodd" clip-rule="evenodd" d="M33.9994 63.7533C33.9994 65.6841 32.4342 68.1465 30.5041 69.2532C28.5733 70.3599 27.0082 69.6926 27.0082 67.7619C27.0082 65.8318 28.5733 63.3694 30.5041 62.262C32.4342 61.1553 33.9994 61.8226 33.9994 63.7533Z" stroke="#192A42" stroke-width="1.5"/>
  <path fill-rule="evenodd" clip-rule="evenodd" d="M43.9889 63.0021C43.9889 64.9328 42.4238 67.3952 40.4937 68.5019C38.5629 69.6086 36.9977 68.9414 36.9977 67.0106C36.9977 65.0805 38.5629 62.6182 40.4937 61.5107C42.4238 60.404 43.9889 61.0713 43.9889 63.0021Z" fill="white"/>
  <path fill-rule="evenodd" clip-rule="evenodd" d="M43.9889 63.0021C43.9889 64.9328 42.4238 67.3952 40.4937 68.5019C38.5629 69.6086 36.9977 68.9414 36.9977 67.0106C36.9977 65.0805 38.5629 62.6182 40.4937 61.5107C42.4238 60.404 43.9889 61.0713 43.9889 63.0021V63.0021Z" stroke="#192A42" stroke-width="1.5"/>
  <path fill-rule="evenodd" clip-rule="evenodd" d="M46.9572 64.4905C46.9572 66.4213 45.3921 68.8836 43.462 69.9903C41.5312 71.0971 39.9661 70.4298 39.9661 68.499C39.9661 66.5689 41.5312 64.1066 43.462 62.9992C45.3921 61.8924 46.9572 62.5597 46.9572 64.4905Z" fill="#128AFB"/>
</svg>
