<svg width="72" height="85" viewBox="0 0 72 85" fill="none" xmlns="http://www.w3.org/2000/svg">
  <path fill-rule="evenodd" clip-rule="evenodd" d="M71 62.6521L36.0009 42.4154L71 62.6521Z" fill="white"/>
  <path d="M71 62.6521L36.0009 42.4154" stroke="#192A42" stroke-width="1.5"/>
  <path fill-rule="evenodd" clip-rule="evenodd" d="M36.0006 42.4151V2L1 22.2075V62.6226L36.0006 42.4151Z" stroke="#99ACBC" stroke-width="1.5"/>
  <path fill-rule="evenodd" clip-rule="evenodd" d="M12.6714 69.3699L47.6678 49.2397L47.6671 8.79395L12.6686 29.0022L12.6714 69.3699Z" fill="white"/>
  <path fill-rule="evenodd" clip-rule="evenodd" d="M12.6714 69.3699L47.6678 49.2397L47.6671 8.79395L12.6686 29.0022L12.6714 69.3699Z" stroke="#99ACBC" stroke-width="1.5"/>
  <path fill-rule="evenodd" clip-rule="evenodd" d="M24.3375 76.1137L59.3339 55.9597L59.3332 15.514L24.3347 35.7223L24.3375 76.1137Z" fill="white"/>
  <path fill-rule="evenodd" clip-rule="evenodd" d="M24.3375 76.1137L59.3339 55.9597L59.3332 15.514L24.3347 35.7223L24.3375 76.1137Z" stroke="#99ACBC" stroke-width="1.5"/>
  <path fill-rule="evenodd" clip-rule="evenodd" d="M31.4348 80.6462L66.4312 60.4414L66.4305 19.9957L31.432 40.204L31.4348 80.6462Z" fill="#167FF5"/>
  <path fill-rule="evenodd" clip-rule="evenodd" d="M36.0036 82.8571L71 62.6523L70.9993 22.2066L36.0009 42.4149L36.0036 82.8571Z" fill="white"/>
  <path fill-rule="evenodd" clip-rule="evenodd" d="M36.0036 82.8571L71 62.6523L70.9993 22.2066L36.0009 42.4149L36.0036 82.8571Z" stroke="#192A42" stroke-width="1.5"/>
  <path fill-rule="evenodd" clip-rule="evenodd" d="M40.1522 63.2824L51.0592 56.9999V44.421L40.1654 50.684L40.1522 63.2824Z" fill="#FFBA35"/>
  <path fill-rule="evenodd" clip-rule="evenodd" d="M42.5946 58.8259L53.5016 52.5434V39.9645L42.6078 46.2275L42.5946 58.8259Z" stroke="#192A42" stroke-width="1.5"/>
  <path fill-rule="evenodd" clip-rule="evenodd" d="M64.7913 53.8516L42.2145 66.8328L64.7913 53.8516Z" fill="white"/>
  <path d="M64.7913 53.8516L42.2145 66.8328" stroke="#192A42" stroke-width="1.5"/>
  <path fill-rule="evenodd" clip-rule="evenodd" d="M64.8504 59.0987L42.2144 72.114L64.8504 59.0987Z" fill="white"/>
  <path d="M64.8504 59.0987L42.2144 72.114" stroke="#192A42" stroke-width="1.5"/>
  <path fill-rule="evenodd" clip-rule="evenodd" d="M64.7914 39.2746L57.2817 43.5922L64.7914 39.2746Z" fill="white"/>
  <path d="M64.7914 39.2746L57.2817 43.5922" stroke="#192A42" stroke-width="1.5"/>
  <path fill-rule="evenodd" clip-rule="evenodd" d="M62.7928 47.1524L57.2815 50.3207L62.7928 47.1524Z" fill="white"/>
  <path d="M62.7928 47.1524L57.2815 50.3207" stroke="#192A42" stroke-width="1.5"/>
</svg>
