<svg width="73" height="84" viewBox="0 0 73 84" fill="none" xmlns="http://www.w3.org/2000/svg">
    <path fill-rule="evenodd" clip-rule="evenodd" d="M71.7135 21.4346L71.7318 62.2784L36.3203 82.6859L1.00586 62.2862V21.4515L36.3702 1.02148L71.7135 21.4346Z" stroke="#99ACBC" stroke-width="1.5"/>
    <path d="M1 62.2794L36.3651 41.8613" stroke="#99ACBC" stroke-width="1.5"/>
    <path d="M71.7263 62.2721L36.3647 41.8611" stroke="#99ACBC" stroke-width="1.5"/>
    <path d="M36.3647 1V41.8614" stroke="#99ACBC" stroke-width="1.5"/>
    <path fill-rule="evenodd" clip-rule="evenodd" d="M38.5 17.5001L69 35L69 28L38.5132 10.4806L38.5 17.5001Z" fill="#FFBA35"/>
    <path fill-rule="evenodd" clip-rule="evenodd" d="M38.5017 29.5L69 47L69 40L38.5149 22.4805L38.5017 29.5Z" fill="#FFBA35"/>
    <path d="M59.4654 39.7531L61.2127 41.8018L67.3585 36.5597" stroke="#192A42" stroke-width="1.5"/>
    <path fill-rule="evenodd" clip-rule="evenodd" d="M65.4985 75.6484L17 47.3255L17 19L65.5 47.3255L65.4985 75.6484Z" fill="#167FF5"/>
    <path d="M59.4654 26.7531L61.2127 28.8018L67.3585 23.5597" stroke="#192A42" stroke-width="1.5"/>
    <path fill-rule="evenodd" clip-rule="evenodd" d="M25 32.5L21 30.0223V25L25 27.5V32.5Z" fill="white"/>
    <path fill-rule="evenodd" clip-rule="evenodd" d="M41.5 42.5L27 34.0223V29L41.5 37.5V42.5Z" fill="white"/>
    <path fill-rule="evenodd" clip-rule="evenodd" d="M41.5 56.5L27 48.0223V43L41.5 51.5V56.5Z" fill="white"/>
    <path fill-rule="evenodd" clip-rule="evenodd" d="M25 39.5L21 37.0223V32L25 34.5V39.5Z" fill="white"/>
    <path fill-rule="evenodd" clip-rule="evenodd" d="M25 47.5L21 45.0223V40L25 42.5V47.5Z" fill="white"/>
</svg>
