<svg width="72" height="69" viewBox="0 0 72 69" fill="none" xmlns="http://www.w3.org/2000/svg">
  <path d="M23.4259 37.1577L28.3837 31.1284" stroke="#A2B4C3" stroke-width="1.5"/>
  <path d="M48.5713 37.1587L44.1789 30.8112" stroke="#1A304C" stroke-width="1.5"/>
  <path d="M41.0957 50.1077H30.9045" stroke="#A2B4C3" stroke-width="1.5"/>
  <path fill-rule="evenodd" clip-rule="evenodd" d="M36.0066 1L50.9563 9.63376L50.9588 26.8974L36.006 35.5292L21.055 26.8974L21.0544 9.63376L36.0066 1Z" fill="white"/>
  <path fill-rule="evenodd" clip-rule="evenodd" d="M36.0066 1L50.9563 9.63376L50.9588 26.8974L36.006 35.5292L21.055 26.8974L21.0544 9.63376L36.0066 1Z" stroke="#192A42" stroke-width="1.5"/>
  <path fill-rule="evenodd" clip-rule="evenodd" d="M35.8476 5.36967L21.0555 13.9098L36.0987 22.53L50.9599 13.9499L35.8476 5.36967Z" fill="#FFBD16"/>
  <path d="M36.006 35.5295V18.2658L50.9563 9.63337" stroke="#192A42" stroke-width="1.5"/>
  <path fill-rule="evenodd" clip-rule="evenodd" d="M21.0543 9.63357L36.0059 18.266L21.0543 9.63357Z" fill="white"/>
  <path d="M21.0543 9.63357L36.0059 18.266" stroke="#192A42" stroke-width="1.5"/>
  <path fill-rule="evenodd" clip-rule="evenodd" d="M41.0956 41.4751L41.0963 58.7388L56.0472 67.3713L70.9995 58.7388L70.9975 41.4751L56.0479 32.8414L41.0956 41.4751Z" fill="white"/>
  <path fill-rule="evenodd" clip-rule="evenodd" d="M56.0478 32.8418L70.9974 41.4755L71 58.7392L56.0471 67.371L41.0962 58.7392L41.0955 41.4755L56.0478 32.8418Z" stroke="#192A42" stroke-width="1.5"/>
  <path fill-rule="evenodd" clip-rule="evenodd" d="M56.0474 50.1076V67.3713L70.997 41.4751L56.0474 50.1076Z" fill="white"/>
  <path d="M56.0471 67.3713V50.1076L70.9974 41.4751" stroke="#192A42" stroke-width="1.5"/>
  <path fill-rule="evenodd" clip-rule="evenodd" d="M41.0955 41.4753L56.047 50.1078L41.0955 41.4753Z" fill="white"/>
  <path d="M41.0955 41.4753L56.047 50.1078" stroke="#192A42" stroke-width="1.5"/>
  <path fill-rule="evenodd" clip-rule="evenodd" d="M1 41.4751L1.00129 58.7388L15.9516 67.3713L30.9045 58.7388L30.9025 41.4751L15.9522 32.8414L1 41.4751Z" fill="white"/>
  <path fill-rule="evenodd" clip-rule="evenodd" d="M15.9525 32.8418L30.9022 41.4755L30.9048 58.7392L15.9519 67.371L1.00095 58.7392L1.00031 41.4755L15.9525 32.8418Z" stroke="#99ACBC" stroke-width="1.5"/>
  <path fill-rule="evenodd" clip-rule="evenodd" d="M15.9517 50.1076V67.3713L30.902 41.4751L15.9517 50.1076Z" fill="white"/>
  <path d="M15.9519 67.3713V50.1076L30.9022 41.4751" stroke="#99ACBC" stroke-width="1.5"/>
  <path fill-rule="evenodd" clip-rule="evenodd" d="M15.9517 50.1076L1.00012 41.4751L15.9517 50.1076Z" fill="white"/>
  <path d="M1.00018 41.4753L15.9518 50.1078" stroke="#99ACBC" stroke-width="1.5"/>
  <path fill-rule="evenodd" clip-rule="evenodd" d="M55.6687 36.8666L40.8766 45.4067L55.9198 54.0269L70.781 45.4468L55.6687 36.8666Z" fill="#128AFB"/>
</svg>
