<svg width="73" height="84" viewBox="0 0 73 84" fill="none" xmlns="http://www.w3.org/2000/svg">
  <path d="M71.7246 21.4127L43.9076 5.35468" stroke="#99ACBC" stroke-width="1.5"/>
  <path d="M33.3466 2.7413L1 21.4128L1.00633 62.239L36.3517 82.6522" stroke="#99ACBC" stroke-width="1.5"/>
  <path fill-rule="evenodd" clip-rule="evenodd" d="M58.0136 55.3913L56.3542 46.1452C56.8443 45.2987 57.1516 44.3937 57.1516 43.5865C57.1516 41.8069 55.708 41.1924 53.9284 42.2147C52.1481 43.2378 50.7046 45.5096 50.7046 47.2899C50.7046 48.2026 51.0878 48.803 51.6981 49.0393L50.0746 59.9511C49.7441 62.1758 51.5062 63.099 54.0445 61.6407C56.5827 60.1824 58.3448 57.2356 58.0136 55.3913Z" fill="white"/>
  <path fill-rule="evenodd" clip-rule="evenodd" d="M58.0136 55.3913L56.3542 46.1452C56.8443 45.2987 57.1516 44.3937 57.1516 43.5865C57.1516 41.8069 55.708 41.1924 53.9284 42.2147C52.1481 43.2378 50.7046 45.5096 50.7046 47.2899C50.7046 48.2026 51.0878 48.803 51.6981 49.0393L50.0746 59.9511C49.7441 62.1758 51.5062 63.099 54.0445 61.6407C56.5827 60.1824 58.3448 57.2356 58.0136 55.3913Z" stroke="#1C2A40" stroke-width="2" stroke-linejoin="round"/>
  <path fill-rule="evenodd" clip-rule="evenodd" d="M61.7855 56.6977L60.1261 47.4516C60.6162 46.6051 60.9235 45.7001 60.9235 44.893C60.9235 43.1133 59.48 42.4988 57.7004 43.5212C55.92 44.5442 54.4765 46.816 54.4765 48.5963C54.4765 49.509 54.8597 50.1094 55.47 50.3457L53.8465 61.2575C53.5154 63.4822 55.2781 64.4054 57.8164 62.9471C60.3546 61.4888 62.1167 58.542 61.7855 56.6977Z" fill="#128AFB"/>
  <path d="M1.00027 21.4127L36.3112 41.792" stroke="#99ACBC" stroke-width="1.5"/>
  <path d="M71.7246 21.4127L36.3117 41.792" stroke="#99ACBC" stroke-width="1.5"/>
  <path fill-rule="evenodd" clip-rule="evenodd" d="M29.1578 16.3056V29.7184L25.7392 31.6196L21.6533 29.3717C21.6533 29.3717 21.6512 24.6629 21.6512 17.0917C21.6512 7.79003 27.7979 2.47792 33.1325 1.40354C36.9653 0.63081 43.4171 1.31495 43.4171 8.90378V21.4131L40.2805 23.2918L36.3859 20.9856V11.9448C36.3859 5.89722 29.1578 8.50722 29.1578 16.3056Z" fill="#FFBD16"/>
  <path fill-rule="evenodd" clip-rule="evenodd" d="M33.6217 16.1472V29.56L30.2031 31.4613L26.1172 29.2134C26.1172 29.2134 26.1151 24.5046 26.1151 16.9333C26.1151 7.63168 32.2618 2.31957 37.5965 1.2452C41.4292 0.473166 47.8811 1.1566 47.8811 8.74543V21.2547L44.7444 23.1335L40.8498 20.8272V11.7864C40.8498 5.73887 33.6217 8.34887 33.6217 16.1472Z" fill="white"/>
  <path fill-rule="evenodd" clip-rule="evenodd" d="M33.6217 16.1472V29.56L30.2031 31.4613L26.1172 29.2134C26.1172 29.2134 26.1151 24.5046 26.1151 16.9333C26.1151 7.63168 32.2618 2.31957 37.5965 1.2452C41.4292 0.473166 47.8811 1.1566 47.8811 8.74543V21.2547L44.7444 23.1335L40.8498 20.8272V11.7864C40.8498 5.73887 33.6217 8.34887 33.6217 16.1472V16.1472Z" stroke="#99ACBC" stroke-width="2" stroke-linejoin="round"/>
  <path fill-rule="evenodd" clip-rule="evenodd" d="M71.688 21.42L36.3349 41.8261L36.3497 82.6383L36.3651 82.6453L71.6944 62.2392L71.7007 21.427L71.688 21.42Z" stroke="#192A42" stroke-width="1.5"/>
</svg>
