<svg width="30" height="25" viewBox="0 0 30 25" fill="none" xmlns="http://www.w3.org/2000/svg">
  <path d="M30.0002 3.52657C29.1908 4.73235 28.1667 5.80599 26.9775 6.6649C26.994 6.91266 26.994 7.17694 26.994 7.44122C26.994 15.4522 20.899 24.6855 9.76618 24.6855C6.34705 24.6855 3.15916 23.678 0.466797 21.9601C0.945806 22.0097 1.42482 22.0427 1.92034 22.0427C4.76136 22.0427 7.37113 21.0682 9.43583 19.4495C8.1728 19.4234 6.94947 19.0034 5.93671 18.2483C4.92394 17.4931 4.17232 16.4405 3.78682 15.2375C4.15021 15.3036 4.53011 15.3531 4.92654 15.3531C5.47161 15.3531 6.01669 15.2705 6.51222 15.1384C5.14226 14.8572 3.91117 14.1121 3.02655 13.0289C2.14193 11.9457 1.6579 10.5906 1.65606 9.19209V9.12601C2.48194 9.57199 3.40692 9.85279 4.39797 9.88582C3.56847 9.3294 2.88886 8.57714 2.41927 7.69557C1.94967 6.814 1.70456 5.83029 1.70561 4.83145C1.70561 3.72478 2.00293 2.68417 2.53149 1.79222C5.52117 5.45912 9.9809 7.87068 15.0188 8.11844C14.9197 7.67247 14.8536 7.20998 14.8536 6.73097C14.858 5.12611 15.4986 3.58847 16.6349 2.4552C17.7713 1.32194 19.3107 0.685541 20.9155 0.685547C22.6664 0.685547 24.2356 1.41232 25.3422 2.60158C26.7132 2.32078 28.0181 1.82526 29.1908 1.13152C28.7283 2.53551 27.7703 3.72478 26.515 4.46807C27.7184 4.33652 28.8942 4.0189 30.0002 3.52657Z" fill="#99ACBC"/>
</svg>
