<svg width="22" height="20" viewBox="0 0 22 20" fill="none" xmlns="http://www.w3.org/2000/svg">
  <path fill-rule="evenodd" clip-rule="evenodd"
        d="M5 0.918701C3.47933 0.918701 2.0178 1.18632 0.659295 1.67862L0 1.91754V2.61879V16.9728V18.3988L1.34071 17.913C2.48443 17.4985 3.71558 17.2727 5 17.2727C7.00025 17.2727 8.87403 17.8204 10.4899 18.7788L11 19.0814L11 2.41748C9.20498 1.46027 7.16347 0.918701 5 0.918701ZM5 2.9187C6.80122 2.9187 8.49988 3.36285 10 4.15104V16.2926C8.46063 15.6357 6.77119 15.2727 5 15.2727C3.96821 15.2727 2.96364 15.3959 2 15.6289V3.34394C2.95288 3.06703 3.95894 2.9187 5 2.9187Z"
        fill="#596168"/>
  <path fill-rule="evenodd" clip-rule="evenodd"
        d="M11 19.0814V2.41748C12.795 1.46027 14.8365 0.918701 17 0.918701C18.5207 0.918701 19.9822 1.18632 21.3407 1.67862L22 1.91754V18.3988L20.6593 17.913C19.5156 17.4985 18.2844 17.2727 17 17.2727C14.9998 17.2727 13.126 17.8204 11.5101 18.7788L11 19.0814ZM17 15.2727C15.2288 15.2727 13.5394 15.6357 12 16.2926V4.15104C13.5001 3.36285 15.1988 2.9187 17 2.9187C18.0411 2.9187 19.0471 3.06703 20 3.34394V15.6289C19.0364 15.3959 18.0318 15.2727 17 15.2727Z"
        fill="#99ACBC"/>
</svg>
