<svg width="22" height="14" viewBox="0 0 22 14" fill="none" xmlns="http://www.w3.org/2000/svg">
  <path fill-rule="evenodd" clip-rule="evenodd"
        d="M21.8186 13.5C21.9378 12.8514 22 12.183 22 11.5C22 5.42487 17.0751 0.5 11 0.5C4.92487 0.5 0 5.42487 0 11.5C0 12.183 0.0622466 12.8514 0.181376 13.5H2.22262C2.0769 12.8571 2 12.1878 2 11.5C2 6.52944 6.02944 2.5 11 2.5C15.9706 2.5 20 6.52944 20 11.5C20 12.1878 19.9231 12.8571 19.7774 13.5H21.8186Z"
        fill="#99ACBC"/>
  <path fill-rule="evenodd" clip-rule="evenodd"
        d="M10.7279 13.5H7.26756C7.09739 13.2058 7 12.8643 7 12.5C7 11.8251 7.33432 11.2282 7.8464 10.866L15 6.5L10.7279 13.5Z"
        fill="#596168"/>
</svg>
