<svg width="50" height="58" viewBox="0 0 50 58" fill="none" xmlns="http://www.w3.org/2000/svg">
  <path fill-rule="evenodd" clip-rule="evenodd" d="M48.9874 14.8673L48.9999 42.5846L24.969 56.4336L1.00391 42.5899V14.8787L25.0028 1.01453L48.9874 14.8673Z" stroke="#99ACBC" stroke-width="1.5"/>
  <path d="M1 42.5853L24.9994 28.7292" stroke="#99ACBC" stroke-width="1.5"/>
  <path d="M48.996 42.5805L24.999 28.7292" stroke="#99ACBC" stroke-width="1.5"/>
  <path d="M24.999 1V28.7293" stroke="#99ACBC" stroke-width="1.5"/>
  <path d="M35.2377 27.7561C36.0193 28.1617 36.5184 29.1155 36.5184 30.4544C36.5189 32.75 36.5189 36.2914 36.5189 36.2995L18.563 46.6371V44.4918C18.563 44.4918 18.7613 41.1132 18.7623 38.8133C18.7623 36.9156 18.9686 35.8752 20.3838 34.6269C21.2809 33.8377 21.6482 33.3276 22.5533 32.6758L23.6529 31.9675L23.9043 32.0863L27.5409 35.0221C28.4466 34.7683 30.5452 28.4193 31.436 28.2676C32.0773 28.1588 33.3328 27.7561 33.3328 27.7561H35.2377Z" fill="white"/>
  <path fill-rule="evenodd" clip-rule="evenodd" d="M18.563 46.6371C18.563 46.6371 18.563 41.7314 18.5639 39.432C18.5639 37.5339 19.5345 35.3762 20.9492 34.128C21.8468 33.3393 22.7476 32.6188 23.6528 31.9674L27.5411 35.0222L31.429 28.0791C32.3341 27.8253 33.2355 27.6449 34.1325 27.5366C35.5478 27.3696 36.5183 28.5568 36.5183 30.4544C36.5192 32.75 36.5192 36.2919 36.5192 36.2995L18.563 46.6371Z" stroke="#192A42" stroke-width="1.5"/>
  <path d="M27.5414 15.1423C30.2941 13.7657 32.5291 15.5221 32.5291 19.0612C32.5291 22.6007 30.2941 26.5916 27.5414 27.9677C24.7887 29.3443 22.5537 27.5884 22.5537 24.0489C22.5537 20.5098 24.7887 16.5184 27.5414 15.1423Z" fill="white"/>
  <path fill-rule="evenodd" clip-rule="evenodd" d="M27.5414 15.1423C30.2941 13.7657 32.5291 15.5221 32.5291 19.0612C32.5291 22.6007 30.2941 26.5916 27.5414 27.9677C24.7887 29.3443 22.5537 27.5884 22.5537 24.0489C22.5537 20.5098 24.7887 16.5184 27.5414 15.1423Z" stroke="#192A42" stroke-width="1.5"/>
  <path d="M30.1737 16.1087C32.9264 14.7321 35.1614 16.4885 35.1614 20.0276C35.1614 23.5671 32.9264 27.558 30.1737 28.9341C27.421 30.3107 25.186 28.5548 25.186 25.0153C25.186 21.4762 27.421 17.4848 30.1737 16.1087Z" fill="#128AFB"/>
</svg>
