<svg width="101" height="86" viewBox="0 0 101 86" fill="none" xmlns="http://www.w3.org/2000/svg">
<path opacity="0.8" fill-rule="evenodd" clip-rule="evenodd" d="M53.3864 22.3336L99.4371 49.0188C100.054 49.3764 100.434 50.0358 100.434 50.7492V58.43C100.434 58.797 100.333 59.1568 100.143 59.4702C99.5682 60.4136 98.3377 60.7127 97.3942 60.1383L51.3441 32.0992C50.7481 31.7362 50.3843 31.0889 50.3842 30.3911L50.3837 24.0642C50.3836 23.712 50.4766 23.366 50.6532 23.0613C51.207 22.1056 52.4307 21.7798 53.3864 22.3336Z" fill="#FFC128"/>
<path opacity="0.8" fill-rule="evenodd" clip-rule="evenodd" d="M3.37739 0.3284L30.2579 15.7183C30.8802 16.0746 31.2642 16.7368 31.2642 17.4539V37.8922C31.2642 38.5876 31.6254 39.2331 32.2181 39.5968L50.9314 51.08C51.5232 51.4432 51.8843 52.0873 51.8853 52.7817L51.9309 83.4962C51.9315 83.8597 51.8329 84.2164 51.646 84.528C51.0777 85.4753 49.8493 85.7825 48.9021 85.2142L1.3548 56.6905C0.752318 56.3291 0.383667 55.678 0.383667 54.9755V2.06406C0.383667 1.71545 0.474791 1.37289 0.648005 1.07034C1.19682 0.111765 2.41881 -0.220415 3.37739 0.3284Z" fill="#1070C9"/>
</svg>
