<svg width="50" height="58" viewBox="0 0 50 58" fill="none" xmlns="http://www.w3.org/2000/svg">
  <path d="M49.0002 15.2776L30.1211 4.37927" stroke="#99ACBC" stroke-width="1.5"/>
  <path d="M22.9533 2.60559L1 15.2777L1.00429 42.986L24.9928 56.8402" stroke="#99ACBC" stroke-width="1.5"/>
  <path fill-rule="evenodd" clip-rule="evenodd" d="M39.6944 38.3386L38.5682 32.0634C38.9008 31.4888 39.1094 30.8747 39.1094 30.3268C39.1094 29.119 38.1297 28.7019 36.9219 29.3958C35.7136 30.0901 34.7339 31.632 34.7339 32.8403C34.7339 33.4597 34.994 33.8672 35.4082 34.0275L34.3063 41.4332C34.082 42.9431 35.2779 43.5697 37.0006 42.58C38.7233 41.5902 39.9192 39.5903 39.6944 38.3386Z" fill="white"/>
  <path fill-rule="evenodd" clip-rule="evenodd" d="M39.6944 38.3386L38.5682 32.0634C38.9008 31.4888 39.1094 30.8747 39.1094 30.3268C39.1094 29.119 38.1297 28.7019 36.9219 29.3958C35.7136 30.0901 34.7339 31.632 34.7339 32.8403C34.7339 33.4597 34.994 33.8672 35.4082 34.0275L34.3063 41.4332C34.082 42.9431 35.2779 43.5697 37.0006 42.58C38.7233 41.5902 39.9192 39.5903 39.6944 38.3386Z" stroke="#1C2A40" stroke-width="2" stroke-linejoin="round"/>
  <path fill-rule="evenodd" clip-rule="evenodd" d="M42.2546 39.2252L41.1284 32.95C41.461 32.3754 41.6695 31.7612 41.6695 31.2134C41.6695 30.0056 40.6898 29.5885 39.482 30.2824C38.2738 30.9767 37.294 32.5186 37.294 33.7268C37.294 34.3463 37.5541 34.7538 37.9683 34.9141L36.8665 42.3198C36.6417 43.8297 37.8381 44.4563 39.5608 43.4666C41.2835 42.4768 42.4793 40.4769 42.2546 39.2252Z" fill="#128AFB"/>
  <path d="M1 15.2776L24.9651 29.1088" stroke="#99ACBC" stroke-width="1.5"/>
  <path d="M49.0002 15.2775L24.9658 29.1088" stroke="#99ACBC" stroke-width="1.5"/>
  <path fill-rule="evenodd" clip-rule="evenodd" d="M20.1102 11.8115V20.9146L17.7901 22.205L15.0171 20.6794C15.0171 20.6794 15.0156 17.4835 15.0156 12.345C15.0156 6.0321 19.1873 2.42683 22.8079 1.69766C25.4091 1.17321 29.7879 1.63753 29.7879 6.78799V15.2779L27.6591 16.553L25.0159 14.9878V8.85189C25.0159 4.74747 20.1102 6.51884 20.1102 11.8115Z" fill="#FFBD16"/>
  <path fill-rule="evenodd" clip-rule="evenodd" d="M23.14 11.704V20.8071L20.8199 22.0975L18.0468 20.5719C18.0468 20.5719 18.0454 17.3761 18.0454 12.2375C18.0454 5.92462 22.2171 2.31935 25.8377 1.59018C28.4389 1.06621 32.8177 1.53005 32.8177 6.68051V15.1704L30.6889 16.4455L28.0457 14.8803V8.74441C28.0457 4.63999 23.14 6.41136 23.14 11.704Z" fill="white"/>
  <path fill-rule="evenodd" clip-rule="evenodd" d="M23.14 11.704V20.8071L20.8199 22.0975L18.0468 20.5719C18.0468 20.5719 18.0454 17.3761 18.0454 12.2375C18.0454 5.92462 22.2171 2.31935 25.8377 1.59018C28.4389 1.06621 32.8177 1.53005 32.8177 6.68051V15.1704L30.6889 16.4455L28.0457 14.8803V8.74441C28.0457 4.63999 23.14 6.41136 23.14 11.704V11.704Z" stroke="#99ACBC" stroke-width="2" stroke-linejoin="round"/>
  <path fill-rule="evenodd" clip-rule="evenodd" d="M48.9752 15.2825L24.9814 29.1319L24.9915 56.8307L25.002 56.8355L48.9795 42.9861L48.9838 15.2873L48.9752 15.2825Z" stroke="#192A42" stroke-width="1.5"/>
</svg>
