<svg width="163" height="24" viewBox="0 0 163 24" fill="none" xmlns="http://www.w3.org/2000/svg">
<path d="M20.604 12.3862C20.8262 11.8589 20.9174 11.2857 20.8697 10.7157C20.8924 9.2213 20.6388 7.73558 20.1217 6.33303C19.6696 5.12088 18.969 4.01637 18.0645 3.09028C17.1737 2.21959 16.1064 1.54946 14.9345 1.12497C13.6748 0.658952 12.3407 0.425863 10.9974 0.437117C9.42364 0.412028 7.86181 0.71317 6.41062 1.3215C5.10788 1.86484 3.93167 2.6711 2.95579 3.6897C1.98809 4.72054 1.24121 5.93764 0.760841 7.26655C0.250808 8.66784 -0.00581126 10.1484 0.00294333 11.6394C-0.0330019 13.4363 0.26055 15.2247 0.869112 16.9162C1.39021 18.338 2.20131 19.6363 3.25107 20.7289C4.24878 21.7575 5.46224 22.5529 6.80433 23.0578C8.2163 23.5897 9.71466 23.8562 11.2238 23.8439C12.0536 23.8416 12.8824 23.7825 13.7042 23.667C14.5586 23.5456 15.3992 23.3415 16.2141 23.0578C17.0416 22.7628 17.8339 22.3772 18.5763 21.9081C19.3606 21.4196 20.0672 20.8168 20.6729 20.1196L19.098 18.1543C18.991 17.9927 18.8444 17.8609 18.6722 17.7715C18.5 17.6821 18.3078 17.638 18.1137 17.6434C17.7388 17.65 17.3721 17.755 17.0507 17.948C16.6964 18.1543 16.2731 18.3902 15.7908 18.6358C15.2482 18.9151 14.6816 19.1453 14.0979 19.3237C13.327 19.5621 12.5227 19.6749 11.7159 19.6578C10.8839 19.6685 10.0569 19.5287 9.27488 19.2451C8.55835 18.9765 7.90979 18.5538 7.37522 18.0069C6.81158 17.3951 6.37649 16.6768 6.09565 15.8942C5.72717 14.8942 5.51471 13.8436 5.46571 12.7792H19.5803C19.7676 12.7961 19.9561 12.7653 20.1283 12.6897C20.3004 12.6141 20.4505 12.4961 20.5646 12.3469L20.604 12.3862ZM5.58382 9.51683C5.72683 8.08003 6.33898 6.73001 7.326 5.67466C7.82526 5.20796 8.41412 4.84716 9.05699 4.61409C9.69986 4.38101 10.3834 4.28049 11.0663 4.31859C11.8028 4.30249 12.5342 4.44319 13.212 4.73131C13.8131 4.99731 14.3451 5.39734 14.7672 5.90067C15.1721 6.39015 15.4764 6.95445 15.6629 7.56135C15.8635 8.19728 15.9664 8.85992 15.968 9.52665L5.58382 9.51683Z" fill="white"/>
<path d="M46.4313 0.830383C46.2724 0.835256 46.1158 0.868538 45.9687 0.928648C45.8312 0.979223 45.7068 1.05979 45.6045 1.16449C45.4757 1.30301 45.3665 1.45839 45.2797 1.62633L39.4429 13.0939C39.218 13.4991 39.0143 13.9156 38.8326 14.3419C38.6358 14.7742 38.4488 15.2164 38.2716 15.6783C38.0944 15.2262 37.9172 14.7939 37.7204 14.3713C37.5235 13.9488 37.3267 13.5361 37.12 13.1332L31.2733 1.62633C31.1866 1.45839 31.0773 1.30301 30.9485 1.16449C30.8462 1.05979 30.7218 0.979223 30.5843 0.928648C30.4373 0.868538 30.2806 0.835256 30.1217 0.830383H25.4956V23.51H30.1414V10.4604C30.1414 10.1558 30.1414 9.83148 30.1414 9.47773C30.1414 9.12397 30.1414 8.75056 30.0627 8.37716L36.1062 20.0805C36.2733 20.4232 36.5366 20.71 36.8641 20.906C37.1932 21.0942 37.5675 21.1894 37.9468 21.1811H38.6653C39.0445 21.1894 39.4189 21.0942 39.748 20.906C40.0755 20.71 40.3388 20.4232 40.5059 20.0805L46.51 8.40663C46.51 8.76039 46.4411 9.12397 46.4313 9.47773C46.4214 9.83148 46.4313 10.1558 46.4313 10.4604V23.51H51.0869V0.820557H46.4608" fill="white"/>
<path d="M70.6745 2.9529C69.8444 2.23954 68.8761 1.70436 67.8299 1.38065C66.4928 0.980424 65.1013 0.791436 63.7057 0.820542H55.6838V23.51H60.9596V15.9239H63.7057C65.0859 15.9531 66.4617 15.7607 67.7807 15.354C68.8348 15.0321 69.8079 14.4894 70.6351 13.7621C71.3765 13.0979 71.947 12.2654 72.2985 11.3349C72.6689 10.3419 72.8524 9.28924 72.8399 8.22974C72.8514 7.22234 72.671 6.22194 72.3084 5.28179C71.955 4.38788 71.3952 3.58992 70.6745 2.9529ZM66.6684 10.9713C66.2719 11.3314 65.8044 11.6048 65.296 11.774C64.7875 11.9432 64.2492 12.0045 63.7156 11.954H60.9596V4.76098H63.7057C64.2895 4.74767 64.8715 4.83067 65.4282 5.00664C65.8755 5.15205 66.2854 5.39355 66.6291 5.71415C66.947 6.02163 67.1896 6.39828 67.3377 6.81472C67.5006 7.26849 67.5806 7.74776 67.574 8.22974C67.6314 9.2252 67.3077 10.2052 66.6684 10.9713Z" fill="white"/>
<path d="M117.024 14.6757C116.724 14.414 116.394 14.1896 116.04 14.0075C116.746 13.7512 117.41 13.3901 118.008 12.9364C118.563 12.5165 119.048 12.0125 119.446 11.4428C119.828 10.8893 120.12 10.2791 120.312 9.63468C120.512 8.95505 120.611 8.24994 120.607 7.54163C120.599 6.64217 120.422 5.75219 120.085 4.91795C119.743 4.08152 119.19 3.3472 118.481 2.78559C117.645 2.12173 116.68 1.63973 115.646 1.37057C114.272 1.01022 112.854 0.841563 111.433 0.869418H104.042V23.5097H109.317V15.1179H110.656C110.996 15.0867 111.338 15.155 111.64 15.3144C111.883 15.4711 112.088 15.6791 112.241 15.9237L116.01 22.5173C116.205 22.8424 116.487 23.1066 116.825 23.2802C117.162 23.4539 117.542 23.5299 117.92 23.4999H122.694L117.851 15.6387C117.628 15.276 117.356 14.9454 117.044 14.656L117.024 14.6757ZM115.262 9.3104C115.119 9.73525 114.879 10.1217 114.563 10.4405C114.21 10.7793 113.787 11.0375 113.323 11.1971C112.729 11.3875 112.107 11.4772 111.483 11.4624H109.366V4.76072H111.483C112.557 4.67183 113.629 4.96794 114.504 5.59598C114.833 5.88807 115.091 6.24962 115.261 6.65423C115.432 7.05884 115.509 7.4963 115.489 7.93469C115.494 8.40857 115.421 8.88009 115.272 9.33006" fill="white"/>
<path d="M126.178 23.51H129.298C129.878 23.51 130.433 23.2802 130.843 22.8711C131.253 22.462 131.483 21.9071 131.483 21.3285V0.820557H126.178V23.51Z" fill="white"/>
<path d="M88.0862 0.00491357H87.7417C86.1391 -0.0409448 84.5435 0.234582 83.0495 0.815192C81.5554 1.3958 80.1932 2.2697 79.0434 3.38517C77.8935 4.50065 76.9795 5.83504 76.3554 7.30939C75.7312 8.78374 75.4097 10.3681 75.4097 11.9687C75.4097 13.5693 75.7312 15.1537 76.3554 16.628C76.9795 18.1024 77.8935 19.4368 79.0434 20.5522C80.1932 21.6677 81.5554 22.5416 83.0495 23.1222C84.5435 23.7028 86.1391 23.9784 87.7417 23.9325H88.0862C91.205 23.8433 94.1661 22.5437 96.3405 20.3097C98.5149 18.0758 99.7313 15.0836 99.7313 11.9687C99.7313 8.85379 98.5149 5.86158 96.3405 3.62767C94.1661 1.39376 91.205 0.0941575 88.0862 0.00491357ZM87.909 19.1863C86.4738 19.2175 85.0619 18.8212 83.8532 18.0479C82.6446 17.2746 81.6942 16.1594 81.1231 14.8445C80.5521 13.5296 80.3863 12.0747 80.6471 10.6654C80.9078 9.25604 81.5832 7.95621 82.587 6.93171C83.5908 5.90722 84.8776 5.2045 86.2832 4.91321C87.6887 4.62193 89.1494 4.75528 90.4787 5.29627C91.808 5.83725 92.9458 6.76133 93.7468 7.95062C94.5478 9.1399 94.9758 10.5405 94.9762 11.9736C94.9716 13.8581 94.2305 15.6664 92.9105 17.0135C91.5906 18.3606 89.7961 19.1402 87.909 19.1863Z" fill="white"/>
<path d="M161.986 1.08582C161.322 0.425756 160.423 0.0551758 159.486 0.0551758C158.549 0.0551758 157.65 0.425756 156.986 1.08582L150.726 7.33549L144.171 13.88L136.06 21.977L137.045 22.9597C137.709 23.6197 138.608 23.9903 139.545 23.9903C140.482 23.9903 141.381 23.6197 142.045 22.9597L147.586 17.4273L154.142 10.8829L163 2.039L161.986 1.08582Z" fill="white"/>
<path d="M154.85 13.8798L153.954 12.9856L150.48 16.4544L151.464 17.437L157.006 22.9693C157.67 23.6294 158.569 24 159.506 24C160.443 24 161.342 23.6294 162.006 22.9693L162.99 21.9867L154.879 13.8896L154.85 13.8798Z" fill="white"/>
<path d="M144.899 10.873L145.067 11.0401L148.541 7.58116L148.295 7.33549L142.035 1.08582C141.371 0.425756 140.472 0.0551758 139.535 0.0551758C138.598 0.0551758 137.699 0.425756 137.035 1.08582L136.051 2.06848L144.909 10.9124L144.899 10.873Z" fill="white"/>
</svg>
