<svg width="50" height="59" viewBox="0 0 50 59" fill="none" xmlns="http://www.w3.org/2000/svg">
  <path fill-rule="evenodd" clip-rule="evenodd" d="M24.0791 35.7875L29.3192 47.1819L24.9834 44.5735L22.001 37.6557" fill="#FFBD16"/>
  <path fill-rule="evenodd" clip-rule="evenodd" d="M48.9874 15.7122L48.9998 43.4318L24.967 57.2818L1 43.437V15.7236L25.0009 1.85834L48.9874 15.7122Z" stroke="#99ACBC" stroke-width="1.5"/>
  <path d="M1 43.4288L25.0013 29.5717" stroke="#99ACBC" stroke-width="1.5"/>
  <path d="M48.9999 43.4239L25.001 29.5715" stroke="#99ACBC" stroke-width="1.5"/>
  <path d="M25.001 1.84021V29.5718" stroke="#99ACBC" stroke-width="1.5"/>
  <path fill-rule="evenodd" clip-rule="evenodd" d="M14.937 9.53333L19.4546 12.1378V38.4497L14.937 35.9244V9.53333Z" fill="#128AFB"/>
  <path fill-rule="evenodd" clip-rule="evenodd" d="M17.7939 13.986L22.2366 16.5222L31.2555 24.7839L24.4436 28.0221L29.709 39.0333L31.8382 46.3572L27.5024 43.7489L24.3515 36.5004L22.3115 42.9024L17.7939 40.3771V13.986Z" fill="white"/>
  <path fill-rule="evenodd" clip-rule="evenodd" d="M17.7939 13.986L22.2366 16.5222L31.2555 24.7839L24.4436 28.0221L29.709 39.0333L31.8382 46.3572L27.5024 43.7489L24.3515 36.5004L22.3115 42.9024L17.7939 40.3771V13.986Z" stroke="#192A42" stroke-width="1.5" stroke-linejoin="round"/>
  <path fill-rule="evenodd" clip-rule="evenodd" d="M22.3115 16.5905L37.0467 28.1939L30.4825 31.3143L36.2818 43.8344L31.8382 46.3573L26.5981 34.7334L22.3115 42.9024V16.5905Z" fill="white"/>
  <path fill-rule="evenodd" clip-rule="evenodd" d="M22.3115 16.5905L37.0467 28.1939L30.4825 31.3143L36.2818 43.8344L31.8382 46.3573L26.5981 34.7334L22.3115 42.9024V16.5905Z" stroke="#192A42" stroke-width="1.5" stroke-linejoin="round"/>
</svg>
