<svg width="50" height="58" viewBox="0 0 50 58" fill="none" xmlns="http://www.w3.org/2000/svg">
  <path fill-rule="evenodd" clip-rule="evenodd" d="M48.9874 14.8673L48.9999 42.5847L24.969 56.4336L1.00391 42.59V14.8788L25.0028 1.01459L48.9874 14.8673Z" stroke="#99ACBC" stroke-width="1.5"/>
  <path d="M1 42.5853L24.9994 28.7292" stroke="#99ACBC" stroke-width="1.5"/>
  <path d="M48.996 42.5804L24.999 28.7291" stroke="#99ACBC" stroke-width="1.5"/>
  <path d="M24.999 1V28.7293" stroke="#99ACBC" stroke-width="1.5"/>
  <path fill-rule="evenodd" clip-rule="evenodd" d="M18.5691 32.4808C19.4661 31.6921 20.3675 30.9716 21.2726 30.3203L17.2822 28.0151C16.377 28.6669 15.4762 29.387 14.5786 30.1762C13.1639 31.4244 12.1933 33.5821 12.1933 35.4802C12.1924 37.7796 12.1924 42.6852 12.1924 42.6852L16.1828 44.9899C16.1828 44.9899 16.1828 40.0843 16.1833 37.7849C16.1833 35.8867 17.1538 33.7291 18.5691 32.4808Z" fill="#FFBA35"/>
  <path fill-rule="evenodd" clip-rule="evenodd" d="M35.2378 27.7561C36.0194 28.1617 36.5185 29.1155 36.5185 30.4544C36.519 32.75 36.519 36.2914 36.519 36.2996L18.5632 46.6371L14.5728 44.3324C14.5728 44.3324 14.5728 39.4268 14.5737 37.1269C14.5737 35.2293 15.5442 33.0716 16.9595 31.8234C17.8565 31.0342 18.7579 30.3141 19.663 29.6623L23.653 31.9675L23.9045 32.0863L27.4387 25.7745C28.3444 25.5207 29.0152 25.3074 29.9061 25.1556C30.5474 25.0468 31.6792 25.7015 31.6792 25.7015L35.2378 27.7561Z" fill="white"/>
  <path fill-rule="evenodd" clip-rule="evenodd" d="M35.2378 27.7561C36.0194 28.1617 36.5185 29.1155 36.5185 30.4544C36.519 32.75 36.519 36.2914 36.519 36.2996L18.5632 46.6371L14.5728 44.3324C14.5728 44.3324 14.5728 39.4268 14.5737 37.1269C14.5737 35.2293 15.5442 33.0716 16.9595 31.8234C17.8565 31.0342 18.7579 30.3141 19.663 29.6623L23.653 31.9675L23.9044 32.0863L27.4387 25.7745C28.3444 25.5207 29.0152 25.3074 29.9061 25.1556C30.5474 25.0468 31.6792 25.7015 31.6792 25.7015L35.2378 27.7561Z" stroke="#192A42" stroke-width="1.5"/>
  <path d="M18.563 46.6371C18.563 46.6371 18.563 41.7314 18.5639 39.432C18.5639 37.5339 19.5345 35.3762 20.9492 34.128C21.8468 33.3393 22.7476 32.6188 23.6528 31.9674L27.5411 35.0222L31.429 28.0791C32.3341 27.8253 33.2355 27.6449 34.1325 27.5366C35.5478 27.3696 36.5183 28.5568 36.5183 30.4544C36.5192 32.75 36.5192 36.2919 36.5192 36.2995" stroke="#192A42" stroke-width="1.5"/>
  <path fill-rule="evenodd" clip-rule="evenodd" d="M26.6919 25.7105L31.4291 28.0791L26.6919 25.7105Z" fill="white"/>
  <path d="M26.6919 25.7105L31.4291 28.0791" stroke="#192A42" stroke-width="1.5"/>
  <path fill-rule="evenodd" clip-rule="evenodd" d="M24.2459 28.0153L20.254 25.7106L20.1338 25.6291C19.1671 24.9424 18.5635 23.5844 18.5635 21.7445C18.5635 18.205 20.7216 14.2318 23.4748 12.8552C24.5241 12.3394 25.6993 12.2334 26.5644 12.6829C26.8488 12.8308 30.3162 14.8492 30.3162 14.8492" fill="white"/>
  <path d="M24.2459 28.0153L20.254 25.7106L20.1338 25.6291C19.1671 24.9424 18.5635 23.5844 18.5635 21.7445C18.5635 18.205 20.7216 14.2318 23.4748 12.8552C24.5241 12.3394 25.6993 12.2334 26.5644 12.6829C26.8488 12.8308 30.3163 14.8492 30.3163 14.8492" stroke="#192A42" stroke-width="1.5"/>
  <path fill-rule="evenodd" clip-rule="evenodd" d="M27.5414 15.1424C30.2941 13.7658 32.5291 15.5222 32.5291 19.0612C32.5291 22.6008 30.2941 26.5917 27.5414 27.9678C24.7887 29.3444 22.5537 27.5884 22.5537 24.0489C22.5537 20.5099 24.7887 16.5185 27.5414 15.1424Z" fill="white"/>
  <path fill-rule="evenodd" clip-rule="evenodd" d="M27.5414 15.1424C30.2941 13.7658 32.5291 15.5222 32.5291 19.0612C32.5291 22.6008 30.2941 26.5917 27.5414 27.9678C24.7887 29.3444 22.5537 27.5884 22.5537 24.0489C22.5537 20.5099 24.7887 16.5185 27.5414 15.1424V15.1424Z" stroke="#192A42" stroke-width="1.5"/>
  <path fill-rule="evenodd" clip-rule="evenodd" d="M30.1737 16.1087C32.9264 14.7321 35.1614 16.4885 35.1614 20.0275C35.1614 23.5671 32.9264 27.558 30.1737 28.9341C27.421 30.3107 25.186 28.5547 25.186 25.0152C25.186 21.4762 27.421 17.4848 30.1737 16.1087Z" fill="#167FF5"/>
</svg>
