<svg width="50" height="58" viewBox="0 0 50 58" fill="none" xmlns="http://www.w3.org/2000/svg">
  <path fill-rule="evenodd" clip-rule="evenodd" d="M48.9877 14.8653L49.0001 42.5843L24.9679 56.434L1.00146 42.5895V14.8768L25.0017 1.01184L48.9877 14.8653Z" stroke="#99ACBC" stroke-width="1.5"/>
  <path d="M1 42.5877L25.0007 28.7309" stroke="#99ACBC" stroke-width="1.5"/>
  <path d="M48.9987 42.5828L38.4712 36.5064" stroke="#99ACBC" stroke-width="1.5"/>
  <path d="M25.0005 1.00006V28.7071" stroke="#99ACBC" stroke-width="1.5"/>
  <path fill-rule="evenodd" clip-rule="evenodd" d="M10.9427 25.1549C8.56153 26.6132 6.65186 29.9701 6.65186 32.7411C6.65186 34.1526 7.14765 35.1442 7.94883 35.6071L12.4663 38.2153C11.6651 37.7525 11.1693 36.7609 11.1693 35.3494C11.1693 32.5784 13.079 29.2214 15.4601 27.7632L10.9427 25.1549Z" fill="#FFBD16"/>
  <path fill-rule="evenodd" clip-rule="evenodd" d="M13.4505 26.619C13.5893 24.1944 15.279 21.3652 17.3457 20.1723C17.6797 19.9795 18.0042 19.8411 18.3134 19.7528C19.6223 16.7666 21.835 14.0224 24.3445 12.5737C26.3544 11.4136 28.1729 11.3039 29.4899 12.064L34.0074 14.6723C32.6909 13.9122 30.8718 14.0219 28.862 15.1819C26.3525 16.6306 24.1398 19.3749 22.8309 22.3616C22.5217 22.4494 22.1972 22.5878 21.8632 22.7806C19.7965 23.9735 18.1068 26.8027 17.9679 29.2273C15.5868 30.6855 13.6771 34.0425 13.6771 36.8135C13.6771 38.225 14.1729 39.2166 14.9741 39.6794L10.4566 37.0711C9.65546 36.6083 9.15967 35.6167 9.15967 34.2052C9.15967 31.4342 11.0693 28.0773 13.4505 26.619Z" fill="white"/>
  <path fill-rule="evenodd" clip-rule="evenodd" d="M13.4505 26.619C13.5893 24.1944 15.279 21.3652 17.3457 20.1723C17.6797 19.9795 18.0042 19.8411 18.3134 19.7528C19.6223 16.7666 21.835 14.0224 24.3445 12.5737C26.3544 11.4136 28.1729 11.3039 29.4899 12.064L34.0074 14.6723C32.6909 13.9122 30.8718 14.0219 28.862 15.1819C26.3525 16.6306 24.1398 19.3749 22.8309 22.3616C22.5217 22.4494 22.1972 22.5878 21.8632 22.7805C19.7965 23.9735 18.1068 26.8027 17.9679 29.2273C15.5868 30.6855 13.6771 34.0425 13.6771 36.8135C13.6771 38.225 14.1729 39.2166 14.9741 39.6794L10.4566 37.0712C9.65546 36.6083 9.15967 35.6167 9.15967 34.2052C9.15967 31.4342 11.0693 28.0773 13.4505 26.619V26.619Z" stroke="#192A42" stroke-width="1.5"/>
  <path d="M18.3135 19.753L22.8309 22.3613" stroke="#192A42" stroke-width="1.5"/>
  <path d="M13.4502 26.619L17.9677 29.2272" stroke="#192A42" stroke-width="1.5"/>
  <path fill-rule="evenodd" clip-rule="evenodd" d="M21.1112 37.633L18.1055 39.369C16.8825 40.0752 15.7754 40.142 14.9742 39.6791C14.173 39.2168 13.6772 38.2247 13.6772 36.8137C13.6772 34.0427 15.5869 30.6857 17.9681 29.2275C18.1064 26.8029 19.7966 23.9737 21.8633 22.7803C22.1973 22.5875 22.5218 22.4491 22.831 22.3613C24.1399 19.3746 26.3526 16.6309 28.8621 15.1821C30.872 14.0216 32.6905 13.9119 34.0075 14.672C35.2067 15.3649 35.9897 16.7793 36.1205 18.7791C37.1369 18.3287 38.0483 18.3358 38.7349 18.7324C39.5357 19.1947 40.0314 20.1863 40.0314 21.5978C40.0314 24.4213 38.0488 27.8546 35.6032 29.2666L34.0075 30.209" fill="white"/>
  <path d="M21.1112 37.633L18.1055 39.369C16.8825 40.0752 15.7754 40.142 14.9742 39.6791C14.173 39.2168 13.6772 38.2247 13.6772 36.8137C13.6772 34.0427 15.5869 30.6857 17.9681 29.2275C18.1064 26.8029 19.7966 23.9737 21.8633 22.7803C22.1973 22.5875 22.5218 22.4491 22.831 22.3613C24.1399 19.3746 26.3526 16.6309 28.8621 15.1821C30.872 14.0216 32.6905 13.9119 34.0075 14.672C35.2067 15.3649 35.9897 16.7793 36.1205 18.7791C37.1369 18.3287 38.0483 18.3358 38.7349 18.7324C39.5357 19.1947 40.0314 20.1863 40.0314 21.5978C40.0314 24.4213 38.0488 27.8546 35.6032 29.2666L34.0075 30.209" stroke="#192A42" stroke-width="1.5"/>
  <path d="M21.1113 42.527V33.0544" stroke="#192A42" stroke-width="1.5"/>
  <path d="M34.1358 25.8035L34.1434 38.6997L31.5986 40.1685" stroke="#192A42" stroke-width="1.5"/>
  <path d="M27.8025 33.7706L23.9082 36.019" stroke="#192A42" stroke-width="1.5"/>
  <path d="M27.8022 43.5604V24.0923" stroke="#192A42" stroke-width="1.5"/>
  <path fill-rule="evenodd" clip-rule="evenodd" d="M36.5156 37.3457C36.5156 38.656 35.4534 40.3271 34.1435 41.0782C32.8332 41.8293 31.771 41.3764 31.771 40.0661C31.771 38.7563 32.8332 37.0852 34.1435 36.3336C35.4534 35.5825 36.5156 36.0354 36.5156 37.3457Z" fill="white"/>
  <path fill-rule="evenodd" clip-rule="evenodd" d="M36.5156 37.3457C36.5156 38.656 35.4534 40.3271 34.1435 41.0782C32.8332 41.8293 31.771 41.3764 31.771 40.0661C31.771 38.7563 32.8332 37.0852 34.1435 36.3336C35.4534 35.5825 36.5156 36.0354 36.5156 37.3457Z" stroke="#192A42" stroke-width="1.5"/>
  <path fill-rule="evenodd" clip-rule="evenodd" d="M23.395 43.588C23.395 44.8984 22.3328 46.5694 21.0229 47.3205C19.7126 48.0716 18.6504 47.6188 18.6504 46.3084C18.6504 44.9986 19.7126 43.3275 21.0229 42.5759C22.3328 41.8248 23.395 42.2777 23.395 43.588Z" fill="white"/>
  <path fill-rule="evenodd" clip-rule="evenodd" d="M23.395 43.588C23.395 44.8984 22.3328 46.5694 21.0229 47.3205C19.7126 48.0716 18.6504 47.6188 18.6504 46.3084C18.6504 44.9986 19.7126 43.3275 21.0229 42.5759C22.3328 41.8248 23.395 42.2777 23.395 43.588Z" stroke="#192A42" stroke-width="1.5"/>
  <path fill-rule="evenodd" clip-rule="evenodd" d="M30.1748 43.0781C30.1748 44.3885 29.1126 46.0596 27.8027 46.8106C26.4924 47.5617 25.4302 47.1089 25.4302 45.7985C25.4302 44.4887 26.4924 42.8176 27.8027 42.066C29.1126 41.3149 30.1748 41.7678 30.1748 43.0781Z" fill="white"/>
  <path fill-rule="evenodd" clip-rule="evenodd" d="M30.1748 43.0781C30.1748 44.3885 29.1126 46.0596 27.8027 46.8106C26.4924 47.5617 25.4302 47.1089 25.4302 45.7985C25.4302 44.4887 26.4924 42.8176 27.8027 42.066C29.1126 41.3149 30.1748 41.7678 30.1748 43.0781V43.0781Z" stroke="#192A42" stroke-width="1.5"/>
  <path fill-rule="evenodd" clip-rule="evenodd" d="M32.1889 44.0883C32.1889 45.3987 31.1267 47.0697 29.8169 47.8208C28.5065 48.5719 27.4443 48.1191 27.4443 46.8087C27.4443 45.4989 28.5065 43.8278 29.8169 43.0762C31.1267 42.3251 32.1889 42.778 32.1889 44.0883Z" fill="#128AFB"/>
</svg>
