<svg width="50" height="58" viewBox="0 0 50 58" fill="none" xmlns="http://www.w3.org/2000/svg">
  <path fill-rule="evenodd" clip-rule="evenodd" d="M48.9876 14.854L49 42.5737L24.9671 56.4238L1 42.5789V14.8654L25.001 1.00006L48.9876 14.854Z" stroke="#99ACBC" stroke-width="1.5"/>
  <path fill-rule="evenodd" clip-rule="evenodd" d="M7.00665 46.0229L30.9933 32.1743L30.9928 4.46073L30.978 4.45453L6.99854 18.3003L7.00044 46.0196L7.00665 46.0229Z" fill="white"/>
  <path fill-rule="evenodd" clip-rule="evenodd" d="M7.00665 46.0229L30.9933 32.1743L30.9928 4.46073L30.978 4.45453L6.99854 18.3003L7.00044 46.0196L7.00665 46.0229Z" stroke="#192A42" stroke-width="1.5"/>
  <path fill-rule="evenodd" clip-rule="evenodd" d="M36.2456 43.2193L43.7232 38.9121V30.2883L36.2547 34.5821L36.2456 43.2193Z" fill="white"/>
  <path fill-rule="evenodd" clip-rule="evenodd" d="M36.2456 43.2193L43.7232 38.9121V30.2883L36.2547 34.5821L36.2456 43.2193Z" stroke="#192A42" stroke-width="1.5"/>
  <path fill-rule="evenodd" clip-rule="evenodd" d="M34.0518 41.7665L41.5294 37.4594V28.8355L34.0608 33.1293L34.0518 41.7665Z" fill="#167FF5"/>
  <path fill-rule="evenodd" clip-rule="evenodd" d="M11.0693 31.9763L17.0347 28.5405V21.6608L11.0765 25.0861L11.0693 31.9763Z" fill="#FFBA35"/>
  <path fill-rule="evenodd" clip-rule="evenodd" d="M12.9976 28.3674L18.963 24.9316V18.0519L13.0047 21.4772L12.9976 28.3674Z" stroke="#99ACBC" stroke-width="1.5"/>
  <path fill-rule="evenodd" clip-rule="evenodd" d="M21.9678 47.7201L27.9332 44.2843V37.4046L21.9749 40.8299L21.9678 47.7201Z" stroke="#99ACBC" stroke-width="1.5"/>
  <path fill-rule="evenodd" clip-rule="evenodd" d="M39.279 18.7598L23.8003 27.6595L39.279 18.7598Z" fill="white"/>
  <path d="M39.279 18.7598L23.8003 27.6595" stroke="#192A42" stroke-width="1.5"/>
  <path fill-rule="evenodd" clip-rule="evenodd" d="M39.3196 22.3571L23.8008 31.2797L39.3196 22.3571Z" fill="white"/>
  <path d="M39.3196 22.3571L23.8008 31.2797" stroke="#192A42" stroke-width="1.5"/>
  <path fill-rule="evenodd" clip-rule="evenodd" d="M28.9492 15.3849L23.8008 18.3449L28.9492 15.3849Z" fill="white"/>
  <path d="M28.9492 15.3849L23.8008 18.3449" stroke="#192A42" stroke-width="1.5"/>
  <path fill-rule="evenodd" clip-rule="evenodd" d="M27.5792 20.7858L23.8008 22.958L27.5792 20.7858Z" fill="white"/>
  <path d="M27.5792 20.7858L23.8008 22.958" stroke="#192A42" stroke-width="1.5"/>
</svg>
