<svg width="50" height="58" viewBox="0 0 50 58" fill="none" xmlns="http://www.w3.org/2000/svg">
  <path fill-rule="evenodd" clip-rule="evenodd" d="M48.9876 15.2878L49 43.0075L24.9671 56.8576L1 43.0128V15.2993L25.001 1.4339L48.9876 15.2878Z" stroke="#99ACBC" stroke-width="1.5"/>
  <path fill-rule="evenodd" clip-rule="evenodd" d="M25.0016 29.248L1.00684 15.3741L25.0016 29.248Z" fill="white"/>
  <path d="M25.0021 29.2482L1.00732 15.3743" stroke="#99ACBC" stroke-width="1.5"/>
  <path fill-rule="evenodd" clip-rule="evenodd" d="M6.9837 46.4703L30.9703 32.6216L30.9699 4.90812L30.9551 4.90192L6.97559 18.7477L6.97749 46.467L6.9837 46.4703Z" fill="white"/>
  <path fill-rule="evenodd" clip-rule="evenodd" d="M6.9837 46.4703L30.9703 32.6216L30.9699 4.90812L30.9551 4.90192L6.97559 18.7477L6.97749 46.467L6.9837 46.4703Z" stroke="#99ACBC" stroke-width="1.5"/>
  <path fill-rule="evenodd" clip-rule="evenodd" d="M14.4728 35.4772L10.6943 37.6494L14.4728 35.4772Z" fill="white"/>
  <path d="M14.4728 35.4772L10.6943 37.6494" stroke="#99ACBC" stroke-width="1.5"/>
  <path fill-rule="evenodd" clip-rule="evenodd" d="M13.0044 30.9804L20.482 26.6733V18.0494L13.0135 22.3432L13.0044 30.9804Z" fill="#FFBD16"/>
  <path fill-rule="evenodd" clip-rule="evenodd" d="M10.6943 29.7726L18.172 25.4654V16.8416L10.7034 21.1353L10.6943 29.7726Z" stroke="#99ACBC" stroke-width="1.5"/>
  <path fill-rule="evenodd" clip-rule="evenodd" d="M15.5786 30.6238L10.4302 33.5838L15.5786 30.6238Z" fill="white"/>
  <path d="M15.5786 30.6238L10.4302 33.5838" stroke="#99ACBC" stroke-width="1.5"/>
  <path fill-rule="evenodd" clip-rule="evenodd" d="M29.5937 49.089L45.3583 18.7151L41.0554 16.1965L35.2551 19.5368L25.8544 37.6497L23.635 35.7581L19.3326 33.2395L16.5825 38.5382L25.2913 46.5704L29.5937 49.089Z" fill="white"/>
  <path fill-rule="evenodd" clip-rule="evenodd" d="M29.5937 49.089L45.3583 18.7151L41.0554 16.1965L35.2551 19.5368L25.8544 37.6497L23.635 35.7581L19.3326 33.2395L16.5825 38.5382L25.2913 46.5704L29.5937 49.089Z" stroke="#192A42" stroke-width="1.5"/>
  <path d="M20.8853 41.0569L29.594 49.0891" stroke="#192A42" stroke-width="1.5"/>
  <path d="M16.5825 38.5383L20.8849 41.0569L23.635 35.7581" stroke="#192A42" stroke-width="1.5"/>
  <path d="M19.333 33.2396L23.6354 35.7582L29.5941 41.254L39.5584 22.0556L35.2555 19.5369" stroke="#192A42" stroke-width="1.5"/>
  <path d="M45.3584 18.7151L39.5581 22.0554" stroke="#192A42" stroke-width="1.5"/>
  <path fill-rule="evenodd" clip-rule="evenodd" d="M32.344 41.2907L26.3853 35.7953L23.6353 41.0941L32.344 49.1257L48.1086 18.7518L42.3083 22.0927L32.344 41.2907Z" fill="#128AFB"/>
</svg>
