<svg width="104" height="118" viewBox="0 0 104 118" fill="none" xmlns="http://www.w3.org/2000/svg">
  <path d="M1.71582 88.0127L52.0008 58.9807" stroke="#99ACBC" stroke-width="1.5"/>
  <path d="M102.284 88.055L52.0012 58.981" stroke="#99ACBC" stroke-width="1.5"/>
  <path d="M52.0007 0.916748V58.9807" stroke="#99ACBC" stroke-width="1.5"/>
  <path fill-rule="evenodd" clip-rule="evenodd" d="M1.71582 29.9483V88.0132L52.0048 117.083L102.284 88.0552L102.283 29.9473L52.0008 0.917252L1.71582 29.9483Z" stroke="#99ACBC" stroke-width="1.5"/>
  <path fill-rule="evenodd" clip-rule="evenodd" d="M50.4081 44.0896L35.5691 67.8006L55.0901 77.8656L65.7811 55.4006L50.4081 44.0896Z" fill="white"/>
  <path fill-rule="evenodd" clip-rule="evenodd" d="M50.4081 44.0896L35.5691 67.8006L55.0901 77.8656L65.7811 55.4006L50.4081 44.0896Z" stroke="white" stroke-width="1.5"/>
  <path fill-rule="evenodd" clip-rule="evenodd" d="M74.778 32.8212L66.416 27.9912L66.193 27.8782C63.983 26.7392 61.021 27.0802 59.251 29.9602L50.408 44.0902" fill="white"/>
  <path d="M74.778 32.8212L66.416 27.9912L66.193 27.8782C63.983 26.7392 61.021 27.0802 59.251 29.9602L50.408 44.0902" stroke="#192940" stroke-width="1.5"/>
  <path fill-rule="evenodd" clip-rule="evenodd" d="M34.9106 97.1559L26.5486 92.3259L26.1356 92.0559C23.9216 90.5459 22.8926 87.3519 25.4556 83.9589L35.5686 67.7999" fill="white"/>
  <path d="M34.9106 97.1559L26.5486 92.3259L26.1356 92.0559C23.9216 90.5459 22.8926 87.3519 25.4556 83.9589L35.5686 67.7999" stroke="#192940" stroke-width="1.5"/>
  <path fill-rule="evenodd" clip-rule="evenodd" d="M66.4325 62.8719L35.7625 45.1789C26.2585 40.0629 19.4535 51.9589 27.9275 56.7839L58.0695 74.3719C67.6925 79.1669 74.2275 67.7749 66.4325 62.8719Z" fill="white"/>
  <path fill-rule="evenodd" clip-rule="evenodd" d="M66.4325 62.8719L35.7625 45.1789C26.2585 40.0629 19.4535 51.9589 27.9275 56.7839L58.0695 74.3719C67.6925 79.1669 74.2275 67.7749 66.4325 62.8719Z" stroke="#192940" stroke-width="1.5"/>
  <path fill-rule="evenodd" clip-rule="evenodd" d="M52.181 78.7682L41.807 95.0502C37.378 101.209 28.525 95.3072 33.566 88.6342L43.679 72.4752" fill="white"/>
  <path d="M52.181 78.7682L41.807 95.0502C37.378 101.209 28.525 95.3072 33.566 88.6342L43.679 72.4752" stroke="#192940" stroke-width="1.5"/>
  <path fill-rule="evenodd" clip-rule="evenodd" d="M61.4662 50.8329L70.3092 36.7029C73.9882 30.7159 82.8222 35.7009 79.3382 42.1539L70.5262 56.2339" fill="#FFBA35"/>
  <path d="M58.5183 48.765L67.3613 34.635C71.0403 28.648 79.8743 33.633 76.3903 40.086L67.5783 54.166" stroke="#192940" stroke-width="1.5"/>
  <path fill-rule="evenodd" clip-rule="evenodd" d="M74.5429 67.547L43.8729 49.854C34.3689 44.738 27.5639 56.634 36.0379 61.459L66.1799 79.047C75.8029 83.842 82.3379 72.45 74.5429 67.547Z" fill="white"/>
  <path fill-rule="evenodd" clip-rule="evenodd" d="M74.5429 67.547L43.8729 49.854C34.3689 44.738 27.5639 56.634 36.0379 61.459L66.1799 79.047C75.8029 83.842 82.3379 72.45 74.5429 67.547Z" stroke="#192940" stroke-width="1.5"/>
  <path fill-rule="evenodd" clip-rule="evenodd" d="M77.9712 73.6221L47.3012 55.9291C37.7972 50.8131 30.9922 62.7091 39.4662 67.5341L69.6082 85.1221C79.2312 89.9171 85.7662 78.5251 77.9712 73.6221Z" fill="#128AFB"/>
</svg>
