<svg width="73" height="84" viewBox="0 0 73 84" fill="none" xmlns="http://www.w3.org/2000/svg">
  <path fill-rule="evenodd" clip-rule="evenodd" d="M71.7077 21.4342L71.7259 62.278L36.3145 82.6855L1 62.2858V21.4511L36.3644 1.02109L71.7077 21.4342Z" stroke="#99ACBC" stroke-width="1.5"/>
  <path d="M1.00781 62.2627L36.363 41.8201" stroke="#99ACBC" stroke-width="1.5"/>
  <path fill-rule="evenodd" clip-rule="evenodd" d="M36.3657 1.00914V41.8438L71.709 62.2499L71.7181 62.2436L71.721 21.4012L36.3875 1L36.3657 1.00914Z" fill="white"/>
  <path fill-rule="evenodd" clip-rule="evenodd" d="M71.7085 62.2493L36.3652 41.8439L36.3659 1.0092L36.3877 1.00006L71.7205 21.4012L71.7177 62.2444L71.7085 62.2493Z" stroke="#192A42" stroke-width="1.5"/>
  <path fill-rule="evenodd" clip-rule="evenodd" d="M7.67139 38.1391L18.6894 31.7927V19.0858L7.68475 25.4125L7.67139 38.1391Z" fill="white"/>
  <path fill-rule="evenodd" clip-rule="evenodd" d="M7.67139 38.1391L18.6894 31.7927V19.0858L7.68475 25.4125L7.67139 38.1391Z" stroke="#99ACBC" stroke-width="1.5"/>
  <path fill-rule="evenodd" clip-rule="evenodd" d="M5.14893 42.6256L16.1669 36.2792V23.5724L5.16229 29.8991L5.14893 42.6256Z" fill="#128AFB"/>
  <path fill-rule="evenodd" clip-rule="evenodd" d="M30.0939 33.1142L7.28662 46.2275L30.0939 33.1142Z" fill="white"/>
  <path d="M30.0939 33.1142L7.28662 46.2275" stroke="#99ACBC" stroke-width="1.5"/>
  <path fill-rule="evenodd" clip-rule="evenodd" d="M30.1534 38.4147L7.28711 51.5617L30.1534 38.4147Z" fill="white"/>
  <path d="M30.1534 38.4147L7.28711 51.5617" stroke="#99ACBC" stroke-width="1.5"/>
  <path fill-rule="evenodd" clip-rule="evenodd" d="M30.0938 18.3889L22.5078 22.7504L30.0938 18.3889Z" fill="white"/>
  <path d="M30.0938 18.3889L22.5078 22.7504" stroke="#99ACBC" stroke-width="1.5"/>
  <path fill-rule="evenodd" clip-rule="evenodd" d="M28.0752 26.3468L22.5078 29.5474L28.0752 26.3468Z" fill="white"/>
  <path d="M28.0752 26.3468L22.5078 29.5474" stroke="#99ACBC" stroke-width="1.5"/>
  <path fill-rule="evenodd" clip-rule="evenodd" d="M68.1415 43.6542L57.1235 37.3078V24.601L68.1281 30.9277L68.1415 43.6542Z" fill="#FFBD16"/>
  <path fill-rule="evenodd" clip-rule="evenodd" d="M65.059 38.1238L54.041 31.7774V19.0705L65.0456 25.3972L65.059 38.1238Z" stroke="#192A42" stroke-width="1.5"/>
  <path fill-rule="evenodd" clip-rule="evenodd" d="M42.6362 33.0988L65.4428 46.2121L42.6362 33.0988Z" fill="white"/>
  <path d="M42.6362 33.0988L65.4428 46.2121" stroke="#192A42" stroke-width="1.5"/>
  <path fill-rule="evenodd" clip-rule="evenodd" d="M42.5767 38.3994L65.443 51.5464L42.5767 38.3994Z" fill="white"/>
  <path d="M42.5767 38.3994L65.443 51.5464" stroke="#192A42" stroke-width="1.5"/>
  <path fill-rule="evenodd" clip-rule="evenodd" d="M42.6362 18.3736L50.2222 22.7351L42.6362 18.3736Z" fill="white"/>
  <path d="M42.6362 18.3736L50.2222 22.7351" stroke="#192A42" stroke-width="1.5"/>
  <path fill-rule="evenodd" clip-rule="evenodd" d="M44.6553 26.3315L50.2226 29.5322L44.6553 26.3315Z" fill="white"/>
  <path d="M44.6553 26.3315L50.2226 29.5322" stroke="#192A42" stroke-width="1.5"/>
</svg>
